<mxfile host="Electron" modified="2024-03-23T09:58:32.166Z" agent="Mozilla/5.0 (Windows NT 10.0; Win64; x64) AppleWebKit/537.36 (KHTML, like Gecko) draw.io/24.0.4 Chrome/120.0.6099.109 Electron/28.1.0 Safari/537.36" etag="CYF3anRooD23wWMBjdxN" version="24.0.4" type="device">
  <diagram name="Page-1" id="05Jhu9Tuh3RNnMKY3rRU">
    <mxGraphModel dx="792" dy="1187" grid="1" gridSize="10" guides="1" tooltips="1" connect="1" arrows="1" fold="1" page="1" pageScale="1" pageWidth="827" pageHeight="1169" math="0" shadow="0">
      <root>
        <mxCell id="0" />
        <mxCell id="1" parent="0" />
        <mxCell id="qeeQlg8Ln3PyMWFTfQ0v-6" style="edgeStyle=orthogonalEdgeStyle;rounded=0;orthogonalLoop=1;jettySize=auto;html=1;endArrow=ERmandOne;endFill=0;startArrow=ERzeroToMany;startFill=0;endSize=10;startSize=10;" edge="1" parent="1" source="qeeQlg8Ln3PyMWFTfQ0v-1" target="qeeQlg8Ln3PyMWFTfQ0v-2">
          <mxGeometry relative="1" as="geometry" />
        </mxCell>
        <mxCell id="qeeQlg8Ln3PyMWFTfQ0v-1" value="Person" style="rounded=0;whiteSpace=wrap;html=1;" vertex="1" parent="1">
          <mxGeometry x="320" y="380" width="120" height="60" as="geometry" />
        </mxCell>
        <mxCell id="qeeQlg8Ln3PyMWFTfQ0v-2" value="City" style="rounded=0;whiteSpace=wrap;html=1;" vertex="1" parent="1">
          <mxGeometry x="560" y="380" width="120" height="60" as="geometry" />
        </mxCell>
        <mxCell id="qeeQlg8Ln3PyMWFTfQ0v-7" style="edgeStyle=orthogonalEdgeStyle;rounded=0;orthogonalLoop=1;jettySize=auto;html=1;entryX=0.5;entryY=1;entryDx=0;entryDy=0;startArrow=ERzeroToMany;startFill=0;endArrow=ERmandOne;endFill=0;endSize=10;startSize=10;" edge="1" parent="1" source="qeeQlg8Ln3PyMWFTfQ0v-3" target="qeeQlg8Ln3PyMWFTfQ0v-2">
          <mxGeometry relative="1" as="geometry" />
        </mxCell>
        <mxCell id="qeeQlg8Ln3PyMWFTfQ0v-8" style="edgeStyle=orthogonalEdgeStyle;rounded=0;orthogonalLoop=1;jettySize=auto;html=1;entryX=0.5;entryY=0;entryDx=0;entryDy=0;startArrow=ERmandOne;startFill=0;endArrow=ERzeroToMany;endFill=0;endSize=10;startSize=10;" edge="1" parent="1" source="qeeQlg8Ln3PyMWFTfQ0v-3" target="qeeQlg8Ln3PyMWFTfQ0v-4">
          <mxGeometry relative="1" as="geometry" />
        </mxCell>
        <mxCell id="qeeQlg8Ln3PyMWFTfQ0v-3" value="Producer" style="rounded=0;whiteSpace=wrap;html=1;" vertex="1" parent="1">
          <mxGeometry x="560" y="560" width="120" height="60" as="geometry" />
        </mxCell>
        <mxCell id="qeeQlg8Ln3PyMWFTfQ0v-4" value="Item" style="rounded=0;whiteSpace=wrap;html=1;" vertex="1" parent="1">
          <mxGeometry x="560" y="720" width="120" height="60" as="geometry" />
        </mxCell>
        <mxCell id="qeeQlg8Ln3PyMWFTfQ0v-9" style="edgeStyle=orthogonalEdgeStyle;rounded=0;orthogonalLoop=1;jettySize=auto;html=1;entryX=0;entryY=0.5;entryDx=0;entryDy=0;startArrow=ERzeroToMany;startFill=0;endArrow=ERmandOne;endFill=0;endSize=10;startSize=10;" edge="1" parent="1" source="qeeQlg8Ln3PyMWFTfQ0v-5" target="qeeQlg8Ln3PyMWFTfQ0v-4">
          <mxGeometry relative="1" as="geometry">
            <Array as="points">
              <mxPoint x="380" y="750" />
            </Array>
          </mxGeometry>
        </mxCell>
        <mxCell id="qeeQlg8Ln3PyMWFTfQ0v-10" style="edgeStyle=orthogonalEdgeStyle;rounded=0;orthogonalLoop=1;jettySize=auto;html=1;entryX=0.5;entryY=1;entryDx=0;entryDy=0;startArrow=ERzeroToMany;startFill=0;strokeWidth=1;endSize=10;startSize=10;endArrow=ERmandOne;endFill=0;" edge="1" parent="1" source="qeeQlg8Ln3PyMWFTfQ0v-5" target="qeeQlg8Ln3PyMWFTfQ0v-1">
          <mxGeometry relative="1" as="geometry" />
        </mxCell>
        <mxCell id="qeeQlg8Ln3PyMWFTfQ0v-5" value="Transaction" style="rounded=0;whiteSpace=wrap;html=1;" vertex="1" parent="1">
          <mxGeometry x="320" y="560" width="120" height="60" as="geometry" />
        </mxCell>
      </root>
    </mxGraphModel>
  </diagram>
</mxfile>
